<svg id="SvgjsSvg1998" width="1684" height="2563" xmlns="http://www.w3.org/2000/svg" version="1.1" xmlns:xlink="http://www.w3.org/1999/xlink" xmlns:svgjs="http://svgjs.com/svgjs"><defs id="SvgjsDefs1999"><marker id="SvgjsMarker2028" markerWidth="14" markerHeight="10" refX="10" refY="5" viewBox="0 0 14 10" orient="auto" markerUnits="userSpaceOnUse" stroke-dasharray="0,0"><path id="SvgjsPath2029" d="M0,0 L14,5 L0,10 L0,0" fill="#323232" stroke="#323232" stroke-width="1"></path></marker><marker id="SvgjsMarker2045" markerWidth="14" markerHeight="10" refX="10" refY="5" viewBox="0 0 14 10" orient="auto" markerUnits="userSpaceOnUse" stroke-dasharray="0,0"><path id="SvgjsPath2046" d="M0,0 L14,5 L0,10 L0,0" fill="#323232" stroke="#323232" stroke-width="1"></path></marker><marker id="SvgjsMarker2055" markerWidth="14" markerHeight="10" refX="10" refY="5" viewBox="0 0 14 10" orient="auto" markerUnits="userSpaceOnUse" stroke-dasharray="0,0"><path id="SvgjsPath2056" d="M0,0 L14,5 L0,10 L0,0" fill="#ffb74d" stroke="#ffb74d" stroke-width="1"></path></marker><marker id="SvgjsMarker2063" markerWidth="14" markerHeight="10" refX="10" refY="5" viewBox="0 0 14 10" orient="auto" markerUnits="userSpaceOnUse" stroke-dasharray="0,0"><path id="SvgjsPath2064" d="M0,0 L14,5 L0,10 L0,0" fill="#323232" stroke="#323232" stroke-width="1"></path></marker><marker id="SvgjsMarker2080" markerWidth="14" markerHeight="10" refX="10" refY="5" viewBox="0 0 14 10" orient="auto" markerUnits="userSpaceOnUse" stroke-dasharray="0,0"><path id="SvgjsPath2081" d="M0,0 L14,5 L0,10 L0,0" fill="#323232" stroke="#323232" stroke-width="1"></path></marker><marker id="SvgjsMarker2088" markerWidth="14" markerHeight="10" refX="10" refY="5" viewBox="0 0 14 10" orient="auto" markerUnits="userSpaceOnUse" stroke-dasharray="0,0"><path id="SvgjsPath2089" d="M0,0 L14,5 L0,10 L0,0" fill="#ffb74d" stroke="#ffb74d" stroke-width="1"></path></marker><marker id="SvgjsMarker2096" markerWidth="14" markerHeight="10" refX="10" refY="5" viewBox="0 0 14 10" orient="auto" markerUnits="userSpaceOnUse" stroke-dasharray="0,0"><path id="SvgjsPath2097" d="M0,0 L14,5 L0,10 L0,0" fill="#323232" stroke="#323232" stroke-width="1"></path></marker><marker id="SvgjsMarker2111" markerWidth="14" markerHeight="10" refX="10" refY="5" viewBox="0 0 14 10" orient="auto" markerUnits="userSpaceOnUse" stroke-dasharray="0,0"><path id="SvgjsPath2112" d="M0,0 L14,5 L0,10 L0,0" fill="#323232" stroke="#323232" stroke-width="1"></path></marker><marker id="SvgjsMarker2121" markerWidth="14" markerHeight="10" refX="10" refY="5" viewBox="0 0 14 10" orient="auto" markerUnits="userSpaceOnUse" stroke-dasharray="0,0"><path id="SvgjsPath2122" d="M0,0 L14,5 L0,10 L0,0" fill="#323232" stroke="#323232" stroke-width="1"></path></marker><marker id="SvgjsMarker2143" markerWidth="14" markerHeight="10" refX="10" refY="5" viewBox="0 0 14 10" orient="auto" markerUnits="userSpaceOnUse" stroke-dasharray="0,0"><path id="SvgjsPath2144" d="M0,0 L14,5 L0,10 L0,0" fill="#323232" stroke="#323232" stroke-width="1"></path></marker><marker id="SvgjsMarker2153" markerWidth="14" markerHeight="10" refX="10" refY="5" viewBox="0 0 14 10" orient="auto" markerUnits="userSpaceOnUse" stroke-dasharray="0,0"><path id="SvgjsPath2154" d="M0,0 L14,5 L0,10 L0,0" fill="#323232" stroke="#323232" stroke-width="1"></path></marker><marker id="SvgjsMarker2161" markerWidth="14" markerHeight="10" refX="10" refY="5" viewBox="0 0 14 10" orient="auto" markerUnits="userSpaceOnUse" stroke-dasharray="0,0"><path id="SvgjsPath2162" d="M0,0 L14,5 L0,10 L0,0" fill="#323232" stroke="#323232" stroke-width="1"></path></marker><marker id="SvgjsMarker2171" markerWidth="14" markerHeight="10" refX="10" refY="5" viewBox="0 0 14 10" orient="auto" markerUnits="userSpaceOnUse" stroke-dasharray="0,0"><path id="SvgjsPath2172" d="M0,0 L14,5 L0,10 L0,0" fill="#323232" stroke="#323232" stroke-width="1"></path></marker><marker id="SvgjsMarker2188" markerWidth="14" markerHeight="10" refX="10" refY="5" viewBox="0 0 14 10" orient="auto" markerUnits="userSpaceOnUse" stroke-dasharray="0,0"><path id="SvgjsPath2189" d="M0,0 L14,5 L0,10 L0,0" fill="#323232" stroke="#323232" stroke-width="1"></path></marker><marker id="SvgjsMarker2198" markerWidth="14" markerHeight="10" refX="10" refY="5" viewBox="0 0 14 10" orient="auto" markerUnits="userSpaceOnUse" stroke-dasharray="0,0"><path id="SvgjsPath2199" d="M0,0 L14,5 L0,10 L0,0" fill="#ffb74d" stroke="#ffb74d" stroke-width="1"></path></marker><marker id="SvgjsMarker2218" markerWidth="14" markerHeight="10" refX="10" refY="5" viewBox="0 0 14 10" orient="auto" markerUnits="userSpaceOnUse" stroke-dasharray="0,0"><path id="SvgjsPath2219" d="M0,0 L14,5 L0,10 L0,0" fill="#323232" stroke="#323232" stroke-width="1"></path></marker><marker id="SvgjsMarker2226" markerWidth="14" markerHeight="10" refX="10" refY="5" viewBox="0 0 14 10" orient="auto" markerUnits="userSpaceOnUse" stroke-dasharray="0,0"><path id="SvgjsPath2227" d="M0,0 L14,5 L0,10 L0,0" fill="#ffb74d" stroke="#ffb74d" stroke-width="1"></path></marker><marker id="SvgjsMarker2236" markerWidth="14" markerHeight="10" refX="10" refY="5" viewBox="0 0 14 10" orient="auto" markerUnits="userSpaceOnUse" stroke-dasharray="0,0"><path id="SvgjsPath2237" d="M0,0 L14,5 L0,10 L0,0" fill="#323232" stroke="#323232" stroke-width="1"></path></marker><marker id="SvgjsMarker2246" markerWidth="14" markerHeight="10" refX="10" refY="5" viewBox="0 0 14 10" orient="auto" markerUnits="userSpaceOnUse" stroke-dasharray="0,0"><path id="SvgjsPath2247" d="M0,0 L14,5 L0,10 L0,0" fill="#323232" stroke="#323232" stroke-width="1"></path></marker><marker id="SvgjsMarker2256" markerWidth="14" markerHeight="10" refX="10" refY="5" viewBox="0 0 14 10" orient="auto" markerUnits="userSpaceOnUse" stroke-dasharray="0,0"><path id="SvgjsPath2257" d="M0,0 L14,5 L0,10 L0,0" fill="#323232" stroke="#323232" stroke-width="1"></path></marker><marker id="SvgjsMarker2264" markerWidth="14" markerHeight="10" refX="10" refY="5" viewBox="0 0 14 10" orient="auto" markerUnits="userSpaceOnUse" stroke-dasharray="0,0"><path id="SvgjsPath2265" d="M0,0 L14,5 L0,10 L0,0" fill="#ffb74d" stroke="#ffb74d" stroke-width="1"></path></marker><marker id="SvgjsMarker2274" markerWidth="14" markerHeight="10" refX="10" refY="5" viewBox="0 0 14 10" orient="auto" markerUnits="userSpaceOnUse" stroke-dasharray="0,0"><path id="SvgjsPath2275" d="M0,0 L14,5 L0,10 L0,0" fill="#323232" stroke="#323232" stroke-width="1"></path></marker><marker id="SvgjsMarker2284" markerWidth="14" markerHeight="10" refX="10" refY="5" viewBox="0 0 14 10" orient="auto" markerUnits="userSpaceOnUse" stroke-dasharray="0,0"><path id="SvgjsPath2285" d="M0,0 L14,5 L0,10 L0,0" fill="#323232" stroke="#323232" stroke-width="1"></path></marker><marker id="SvgjsMarker2294" markerWidth="14" markerHeight="10" refX="10" refY="5" viewBox="0 0 14 10" orient="auto" markerUnits="userSpaceOnUse" stroke-dasharray="0,0"><path id="SvgjsPath2295" d="M0,0 L14,5 L0,10 L0,0" fill="#ffb74d" stroke="#ffb74d" stroke-width="1"></path></marker><marker id="SvgjsMarker2302" markerWidth="14" markerHeight="10" refX="10" refY="5" viewBox="0 0 14 10" orient="auto" markerUnits="userSpaceOnUse" stroke-dasharray="0,0"><path id="SvgjsPath2303" d="M0,0 L14,5 L0,10 L0,0" fill="#323232" stroke="#323232" stroke-width="1"></path></marker><marker id="SvgjsMarker2310" markerWidth="14" markerHeight="10" refX="10" refY="5" viewBox="0 0 14 10" orient="auto" markerUnits="userSpaceOnUse" stroke-dasharray="0,0"><path id="SvgjsPath2311" d="M0,0 L14,5 L0,10 L0,0" fill="#323232" stroke="#323232" stroke-width="1"></path></marker></defs><g id="SvgjsG2000" transform="translate(1223,25)"><path id="SvgjsPath2001" d="M 0 0L 120 0L 120 40L 0 40Z" stroke="none" fill="none"></path><g id="SvgjsG2002"><text id="SvgjsText2003" font-family="微软雅黑" text-anchor="middle" font-size="13px" width="120px" fill="#323232" font-weight="400" align="middle" lineHeight="125%" anchor="middle" family="微软雅黑" size="13px" weight="400" font-style="" opacity="1" y="9.375" transform="rotate(0)"><tspan id="SvgjsTspan2004" dy="16" x="60"><tspan id="SvgjsTspan2005" style="text-decoration:;">是</tspan></tspan></text></g></g><g id="SvgjsG2006" transform="translate(1243,45)"><path id="SvgjsPath2007" d="M 0 0L 120 0L 120 40L 0 40Z" stroke="none" fill="none"></path><g id="SvgjsG2008"><text id="SvgjsText2009" font-family="微软雅黑" text-anchor="middle" font-size="13px" width="120px" fill="#323232" font-weight="400" align="middle" lineHeight="125%" anchor="middle" family="微软雅黑" size="13px" weight="400" font-style="" opacity="1" y="9.375" transform="rotate(0)"><tspan id="SvgjsTspan2010" dy="16" x="60"><tspan id="SvgjsTspan2011" style="text-decoration:;">是</tspan></tspan></text></g></g><g id="SvgjsG2012" transform="translate(211,896)"><path id="SvgjsPath2013" d="M 92 30L 92 1642" stroke-dasharray="3,4" stroke="rgba(50,50,50,1)" stroke-width="2" fill="none"></path><path id="SvgjsPath2014" d="M 0 0L 184 0L 184 30L 0 30Z" stroke="rgba(50,50,50,1)" stroke-width="2" fill-opacity="1" fill="#2196f3"></path><g id="SvgjsG2015"><text id="SvgjsText2016" font-family="微软雅黑" text-anchor="middle" font-size="13px" width="164px" fill="#323232" font-weight="400" align="middle" lineHeight="125%" anchor="middle" family="微软雅黑" size="13px" weight="400" font-style="" opacity="1" y="4.375" transform="rotate(0)"><tspan id="SvgjsTspan2017" dy="16" x="92"><tspan id="SvgjsTspan2018" style="text-decoration:;">ReflectiveMethodInvocation</tspan></tspan></text></g></g><g id="SvgjsG2019" transform="translate(407,896)"><path id="SvgjsPath2020" d="M 91 30L 91 1632" stroke-dasharray="3,4" stroke="rgba(50,50,50,1)" stroke-width="2" fill="none"></path><path id="SvgjsPath2021" d="M 0 0L 182 0L 182 30L 0 30Z" stroke="rgba(50,50,50,1)" stroke-width="2" fill-opacity="1" fill="#2196f3"></path><g id="SvgjsG2022"><text id="SvgjsText2023" font-family="微软雅黑" text-anchor="middle" font-size="13px" width="162px" fill="#323232" font-weight="400" align="middle" lineHeight="125%" anchor="middle" family="微软雅黑" size="13px" weight="400" font-style="" opacity="1" y="4.375" transform="rotate(0)"><tspan id="SvgjsTspan2024" dy="16" x="91"><tspan id="SvgjsTspan2025" style="text-decoration:;">AspectJAroundAdvice</tspan></tspan></text></g></g><g id="SvgjsG2026"><path id="SvgjsPath2027" d="M316.5 961.6666666666666L398.25 961.6666666666666L398.25 961.6666666666666L477.4 961.6666666666666" stroke="#323232" stroke-width="2" fill="none" marker-end="url(#SvgjsMarker2028)"></path><rect id="SvgjsRect2030" width="66" height="16" x="363.94999999999993" y="953.6666666666666" fill="#ffffff"></rect><text id="SvgjsText2031" font-family="微软雅黑" text-anchor="middle" font-size="13px" width="66px" fill="#323232" font-weight="400" align="top" lineHeight="16px" anchor="middle" family="微软雅黑" size="13px" weight="400" font-style="" opacity="1" y="951.0416666666666" transform="rotate(0)"><tspan id="SvgjsTspan2032" dy="16" x="396.94999999999993"><tspan id="SvgjsTspan2033" style="text-decoration:;">invoke(this)</tspan></tspan></text></g><g id="SvgjsG2034" transform="translate(481,951)"><path id="SvgjsPath2035" d="M 0 4Q 0 0 4 0L 26 0Q 30 0 30 4L 30 167Q 30 171 26 171L 4 171Q 0 171 0 167L 0 4Z" stroke="rgba(50,50,50,1)" stroke-width="2" fill-opacity="1" fill="#ffffff"></path></g><g id="SvgjsG2036" transform="translate(601,896)"><path id="SvgjsPath2037" d="M 90 30L 90 1544" stroke-dasharray="3,4" stroke="rgba(50,50,50,1)" stroke-width="2" fill="none"></path><path id="SvgjsPath2038" d="M 0 0L 180 0L 180 30L 0 30Z" stroke="rgba(50,50,50,1)" stroke-width="2" fill-opacity="1" fill="#fbc02d"></path><g id="SvgjsG2039"><text id="SvgjsText2040" font-family="微软雅黑" text-anchor="middle" font-size="13px" width="160px" fill="#323232" font-weight="400" align="middle" lineHeight="125%" anchor="middle" family="微软雅黑" size="13px" weight="400" font-style="" opacity="1" y="4.375" transform="rotate(0)"><tspan id="SvgjsTspan2041" dy="16" x="90"><tspan id="SvgjsTspan2042" style="text-decoration:;">MyAop</tspan></tspan></text></g></g><g id="SvgjsG2043"><path id="SvgjsPath2044" d="M512 973L593.75 973L593.75 972L672.9 972" stroke="#323232" stroke-width="2" fill="none" marker-end="url(#SvgjsMarker2045)"></path><rect id="SvgjsRect2047" width="144" height="16" x="520.9499999999999" y="965" fill="#ffffff"></rect><text id="SvgjsText2048" font-family="微软雅黑" text-anchor="middle" font-size="13px" width="144px" fill="#323232" font-weight="400" align="top" lineHeight="16px" anchor="middle" family="微软雅黑" size="13px" weight="400" font-style="" opacity="1" y="962.375" transform="rotate(0)"><tspan id="SvgjsTspan2049" dy="16" x="592.9499999999999"><tspan id="SvgjsTspan2050" style="text-decoration:;">反射执行around拦截方法</tspan></tspan></text></g><g id="SvgjsG2051" transform="translate(676,951)"><path id="SvgjsPath2052" d="M 0 4Q 0 0 4 0L 26 0Q 30 0 30 4L 30 144Q 30 148 26 148L 4 148Q 0 148 0 144L 0 4Z" stroke="rgba(50,50,50,1)" stroke-width="2" fill-opacity="1" fill="#ffffff"></path></g><g id="SvgjsG2053"><path id="SvgjsPath2054" d="M707 987L791 987L791 1040.7977528089887L709.6 1040.7977528089887" stroke="#ffb74d" stroke-width="2" fill="none" marker-end="url(#SvgjsMarker2055)"></path><rect id="SvgjsRect2057" width="199" height="16" x="691.5" y="1004.5988764044944" fill="#ffffff"></rect><text id="SvgjsText2058" font-family="微软雅黑" text-anchor="middle" font-size="13px" width="199px" fill="#323232" font-weight="400" align="top" lineHeight="16px" anchor="middle" family="微软雅黑" size="13px" weight="400" font-style="" opacity="1" y="1001.9738764044944" transform="rotate(0)"><tspan id="SvgjsTspan2059" dy="16" x="791"><tspan id="SvgjsTspan2060" style="text-decoration:;">System.out.println("@Around... 1")</tspan></tspan></text></g><g id="SvgjsG2061"><path id="SvgjsPath2062" d="M675.5 1065.6100000000001L593.75 1065.6100000000001L593.75 1065.6100000000001L514.6 1065.6100000000001" stroke-dasharray="3,3" stroke="#323232" stroke-width="2" fill="none" marker-end="url(#SvgjsMarker2063)"></path><rect id="SvgjsRect2065" width="109" height="16" x="543.3874999999999" y="1057.6100000000001" fill="#ffffff"></rect><text id="SvgjsText2066" font-family="微软雅黑" text-anchor="middle" font-size="13px" width="109px" fill="#323232" font-weight="400" align="top" lineHeight="16px" anchor="middle" family="微软雅黑" size="13px" weight="400" font-style="" opacity="1" y="1054.9850000000001" transform="rotate(0)"><tspan id="SvgjsTspan2067" dy="16" x="597.8874999999999"><tspan id="SvgjsTspan2068" style="text-decoration:;">joinPoint.proceed()</tspan></tspan></text></g><g id="SvgjsG2069" transform="translate(793,896)"><path id="SvgjsPath2070" d="M 102 30L 102 1524" stroke-dasharray="3,4" stroke="rgba(50,50,50,1)" stroke-width="2" fill="none"></path><path id="SvgjsPath2071" d="M 0 0L 204 0L 204 30L 0 30Z" stroke="rgba(50,50,50,1)" stroke-width="2" fill-opacity="1" fill="#2196f3"></path><g id="SvgjsG2072"><text id="SvgjsText2073" font-family="微软雅黑" text-anchor="middle" font-size="13px" width="184px" fill="#323232" font-weight="400" align="middle" lineHeight="125%" anchor="middle" family="微软雅黑" size="13px" weight="400" font-style="" opacity="1" y="4.375" transform="rotate(0)"><tspan id="SvgjsTspan2074" dy="16" x="102"><tspan id="SvgjsTspan2075" style="text-decoration:;">MethodBeforeAdviceInterceptor</tspan></tspan></text></g></g><g id="SvgjsG2076" transform="translate(881.5,1111)"><path id="SvgjsPath2077" d="M 0 4Q 0 0 4 0L 26 0Q 30 0 30 4L 30 90Q 30 94 26 94L 4 94Q 0 94 0 90L 0 4Z" stroke="rgba(50,50,50,1)" stroke-width="2" fill-opacity="1" fill="#ffffff"></path></g><g id="SvgjsG2078"><path id="SvgjsPath2079" d="M317 1141.08L598.75 1141.08L598.75 1141.08L877.9 1141.08" stroke="#323232" stroke-width="2" fill="none" marker-end="url(#SvgjsMarker2080)"></path><rect id="SvgjsRect2082" width="66" height="16" x="564.45" y="1133.08" fill="#ffffff"></rect><text id="SvgjsText2083" font-family="微软雅黑" text-anchor="middle" font-size="13px" width="66px" fill="#323232" font-weight="400" align="top" lineHeight="16px" anchor="middle" family="微软雅黑" size="13px" weight="400" font-style="" opacity="1" y="1130.455" transform="rotate(0)"><tspan id="SvgjsTspan2084" dy="16" x="597.45"><tspan id="SvgjsTspan2085" style="text-decoration:;">invoke(this)</tspan></tspan></text></g><g id="SvgjsG2086"><path id="SvgjsPath2087" d="M912.5 1141.08L1001.5 1141.08L1001.5 1176.8L915.0999999999999 1176.8" stroke="#ffb74d" stroke-width="2" fill="none" marker-end="url(#SvgjsMarker2088)"></path><rect id="SvgjsRect2090" width="184" height="16" x="909.5" y="1149.6399999999999" fill="#ffffff"></rect><text id="SvgjsText2091" font-family="微软雅黑" text-anchor="middle" font-size="13px" width="184px" fill="#323232" font-weight="400" align="top" lineHeight="16px" anchor="middle" family="微软雅黑" size="13px" weight="400" font-style="" opacity="1" y="1147.0149999999999" transform="rotate(0)"><tspan id="SvgjsTspan2092" dy="16" x="1001.5"><tspan id="SvgjsTspan2093" style="text-decoration:;">System.out.println("@Before...")</tspan></tspan></text></g><g id="SvgjsG2094"><path id="SvgjsPath2095" d="M880.5 1188.08L598.25 1188.08L598.25 1188L318.6 1188" stroke-dasharray="3,3" stroke="#323232" stroke-width="2" fill="none" marker-end="url(#SvgjsMarker2096)"></path><rect id="SvgjsRect2098" width="73" height="16" x="563.0100000000001" y="1180.08" fill="#ffffff"></rect><text id="SvgjsText2099" font-family="微软雅黑" text-anchor="middle" font-size="13px" width="73px" fill="#323232" font-weight="400" align="top" lineHeight="16px" anchor="middle" family="微软雅黑" size="13px" weight="400" font-style="" opacity="1" y="1177.455" transform="rotate(0)"><tspan id="SvgjsTspan2100" dy="16" x="599.5100000000001"><tspan id="SvgjsTspan2101" style="text-decoration:;">mi.proceed()</tspan></tspan></text></g><g id="SvgjsG2102" transform="translate(1009,896)"><path id="SvgjsPath2103" d="M 89 30L 89 1555" stroke-dasharray="3,4" stroke="rgba(50,50,50,1)" stroke-width="2" fill="none"></path><path id="SvgjsPath2104" d="M 0 0L 178 0L 178 30L 0 30Z" stroke="rgba(50,50,50,1)" stroke-width="2" fill-opacity="1" fill="#2196f3"></path><g id="SvgjsG2105"><text id="SvgjsText2106" font-family="微软雅黑" text-anchor="middle" font-size="13px" width="158px" fill="#323232" font-weight="400" align="middle" lineHeight="125%" anchor="middle" family="微软雅黑" size="13px" weight="400" font-style="" opacity="1" y="4.375" transform="rotate(0)"><tspan id="SvgjsTspan2107" dy="16" x="89"><tspan id="SvgjsTspan2108" style="text-decoration:;">AspectJAfterAdvice</tspan></tspan></text></g></g><g id="SvgjsG2109"><path id="SvgjsPath2110" d="M317 1250.2588190451024L699.75 1250.2588190451024L699.75 1247.2588190451024L1079.9 1247.2588190451024" stroke="#323232" stroke-width="2" fill="none" marker-end="url(#SvgjsMarker2111)"></path><rect id="SvgjsRect2113" width="66" height="16" x="666.75" y="1242.0588190451022" fill="#ffffff"></rect><text id="SvgjsText2114" font-family="微软雅黑" text-anchor="middle" font-size="13px" width="66px" fill="#323232" font-weight="400" align="top" lineHeight="16px" anchor="middle" family="微软雅黑" size="13px" weight="400" font-style="" opacity="1" y="1239.4338190451022" transform="rotate(0)"><tspan id="SvgjsTspan2115" dy="16" x="699.75"><tspan id="SvgjsTspan2116" style="text-decoration:;">invoke(this)</tspan></tspan></text></g><g id="SvgjsG2117" transform="translate(1081,1240)"><path id="SvgjsPath2118" d="M 0 4Q 0 0 4 0L 26 0Q 30 0 30 4L 30 96Q 30 100 26 100L 4 100Q 0 100 0 96L 0 4Z" stroke="rgba(50,50,50,1)" stroke-width="2" fill-opacity="1" fill="#ffffff"></path></g><g id="SvgjsG2119"><path id="SvgjsPath2120" d="M1082.5 1303L699.25 1303L699.25 1306L318.6 1306" stroke-dasharray="3,3" stroke="#323232" stroke-width="2" fill="none" marker-end="url(#SvgjsMarker2121)"></path><rect id="SvgjsRect2123" width="73" height="16" x="662.75" y="1295.1999999999998" fill="#ffffff"></rect><text id="SvgjsText2124" font-family="微软雅黑" text-anchor="middle" font-size="13px" width="73px" fill="#323232" font-weight="400" align="top" lineHeight="16px" anchor="middle" family="微软雅黑" size="13px" weight="400" font-style="" opacity="1" y="1292.5749999999998" transform="rotate(0)"><tspan id="SvgjsTspan2125" dy="16" x="699.25"><tspan id="SvgjsTspan2126" style="text-decoration:;">mi.proceed()</tspan></tspan></text></g><g id="SvgjsG2127" transform="translate(1199,896)"><path id="SvgjsPath2128" d="M 104 30L 104 1466" stroke-dasharray="3,4" stroke="rgba(50,50,50,1)" stroke-width="2" fill="none"></path><path id="SvgjsPath2129" d="M 0 0L 208 0L 208 30L 0 30Z" stroke="rgba(50,50,50,1)" stroke-width="2" fill-opacity="1" fill="#2196f3"></path><g id="SvgjsG2130"><text id="SvgjsText2131" font-family="微软雅黑" text-anchor="middle" font-size="13px" width="188px" fill="#323232" font-weight="400" align="middle" lineHeight="125%" anchor="middle" family="微软雅黑" size="13px" weight="400" font-style="" opacity="1" y="4.375" transform="rotate(0)"><tspan id="SvgjsTspan2132" dy="16" x="104"><tspan id="SvgjsTspan2133" style="text-decoration:;">AfterReturningAdviceInterceptor</tspan></tspan></text></g></g><g id="SvgjsG2134" transform="translate(1415,896)"><path id="SvgjsPath2135" d="M 122 30L 122 1267" stroke-dasharray="3,4" stroke="rgba(50,50,50,1)" stroke-width="2" fill="none"></path><path id="SvgjsPath2136" d="M 0 0L 244 0L 244 30L 0 30Z" stroke="rgba(50,50,50,1)" stroke-width="2" fill-opacity="1" fill="#2196f3"></path><g id="SvgjsG2137"><text id="SvgjsText2138" font-family="微软雅黑" text-anchor="middle" font-size="13px" width="224px" fill="#323232" font-weight="400" align="middle" lineHeight="125%" anchor="middle" family="微软雅黑" size="13px" weight="400" font-style="" opacity="1" y="4.375" transform="rotate(0)"><tspan id="SvgjsTspan2139" dy="16" x="122"><tspan id="SvgjsTspan2140" style="text-decoration:;">AspectJAfterThrowingAdvice</tspan></tspan></text></g></g><g id="SvgjsG2141"><path id="SvgjsPath2142" d="M316 1364L800.25 1364L800.25 1364L1281.9 1364" stroke="#323232" stroke-width="2" fill="none" marker-end="url(#SvgjsMarker2143)"></path><rect id="SvgjsRect2145" width="66" height="16" x="765.9499999999999" y="1356" fill="#ffffff"></rect><text id="SvgjsText2146" font-family="微软雅黑" text-anchor="middle" font-size="13px" width="66px" fill="#323232" font-weight="400" align="top" lineHeight="16px" anchor="middle" family="微软雅黑" size="13px" weight="400" font-style="" opacity="1" y="1353.375" transform="rotate(0)"><tspan id="SvgjsTspan2147" dy="16" x="798.9499999999999"><tspan id="SvgjsTspan2148" style="text-decoration:;">invoke(this)</tspan></tspan></text></g><g id="SvgjsG2149" transform="translate(1288,1347)"><path id="SvgjsPath2150" d="M 0 4Q 0 0 4 0L 26 0Q 30 0 30 4L 30 96Q 30 100 26 100L 4 100Q 0 100 0 96L 0 4Z" stroke="rgba(50,50,50,1)" stroke-width="2" fill-opacity="1" fill="#ffffff"></path></g><g id="SvgjsG2151"><path id="SvgjsPath2152" d="M1284 1426L799.5 1426L799.5 1426L317.6 1426" stroke-dasharray="3,3" stroke="#323232" stroke-width="2" fill="none" marker-end="url(#SvgjsMarker2153)"></path><rect id="SvgjsRect2155" width="73" height="16" x="764.3000000000001" y="1418" fill="#ffffff"></rect><text id="SvgjsText2156" font-family="微软雅黑" text-anchor="middle" font-size="13px" width="73px" fill="#323232" font-weight="400" align="top" lineHeight="16px" anchor="middle" family="微软雅黑" size="13px" weight="400" font-style="" opacity="1" y="1415.375" transform="rotate(0)"><tspan id="SvgjsTspan2157" dy="16" x="800.8000000000001"><tspan id="SvgjsTspan2158" style="text-decoration:;">mi.proceed()</tspan></tspan></text></g><g id="SvgjsG2159"><path id="SvgjsPath2160" d="M316 1493.5L919.25 1493.5L919.25 1493L1519.9 1493" stroke="#323232" stroke-width="2" fill="none" marker-end="url(#SvgjsMarker2161)"></path><rect id="SvgjsRect2163" width="66" height="16" x="885.2" y="1485.5" fill="#ffffff"></rect><text id="SvgjsText2164" font-family="微软雅黑" text-anchor="middle" font-size="13px" width="66px" fill="#323232" font-weight="400" align="top" lineHeight="16px" anchor="middle" family="微软雅黑" size="13px" weight="400" font-style="" opacity="1" y="1482.875" transform="rotate(0)"><tspan id="SvgjsTspan2165" dy="16" x="918.2"><tspan id="SvgjsTspan2166" style="text-decoration:;">invoke(this)</tspan></tspan></text></g><g id="SvgjsG2167" transform="translate(1523,1473.5)"><path id="SvgjsPath2168" d="M 0 4Q 0 0 4 0L 26 0Q 30 0 30 4L 30 97Q 30 101 26 101L 4 101Q 0 101 0 97L 0 4Z" stroke="rgba(50,50,50,1)" stroke-width="2" fill-opacity="1" fill="#ffffff"></path></g><g id="SvgjsG2169"><path id="SvgjsPath2170" d="M1522 1555.5L919 1555.5L919 1556L318.6 1556" stroke-dasharray="3,3" stroke="#323232" stroke-width="2" fill="none" marker-end="url(#SvgjsMarker2171)"></path><rect id="SvgjsRect2173" width="73" height="16" x="883.55" y="1547.5" fill="#ffffff"></rect><text id="SvgjsText2174" font-family="微软雅黑" text-anchor="middle" font-size="13px" width="73px" fill="#323232" font-weight="400" align="top" lineHeight="16px" anchor="middle" family="微软雅黑" size="13px" weight="400" font-style="" opacity="1" y="1544.875" transform="rotate(0)"><tspan id="SvgjsTspan2175" dy="16" x="920.05"><tspan id="SvgjsTspan2176" style="text-decoration:;">mi.proceed()</tspan></tspan></text></g><g id="SvgjsG2177" transform="translate(286,1474)"><path id="SvgjsPath2178" d="M 0 4Q 0 0 4 0L 26 0Q 30 0 30 4L 30 96Q 30 100 26 100L 4 100Q 0 100 0 96L 0 4Z" stroke="rgba(50,50,50,1)" stroke-width="2" fill-opacity="1" fill="#ffffff"></path></g><g id="SvgjsG2179" transform="translate(25,896)"><path id="SvgjsPath2180" d="M 87 30L 87 970" stroke-dasharray="3,4" stroke="rgba(50,50,50,1)" stroke-width="2" fill="none"></path><path id="SvgjsPath2181" d="M 0 0L 174 0L 174 30L 0 30Z" stroke="rgba(50,50,50,1)" stroke-width="2" fill-opacity="1" fill="#fbc02d"></path><g id="SvgjsG2182"><text id="SvgjsText2183" font-family="微软雅黑" text-anchor="middle" font-size="13px" width="154px" fill="#323232" font-weight="400" align="middle" lineHeight="125%" anchor="middle" family="微软雅黑" size="13px" weight="400" font-style="" opacity="1" y="4.375" transform="rotate(0)"><tspan id="SvgjsTspan2184" dy="16" x="87"><tspan id="SvgjsTspan2185" style="text-decoration:;">Man</tspan></tspan></text></g></g><g id="SvgjsG2186"><path id="SvgjsPath2187" d="M285 1603L206.01703708685545 1603L206.01703708685545 1603.6666666666665L129.63407417371093 1603.6666666666665" stroke="#323232" stroke-width="2" fill="none" marker-end="url(#SvgjsMarker2188)"></path><rect id="SvgjsRect2190" width="98" height="16" x="157.9837037535222" y="1595" fill="#ffffff"></rect><text id="SvgjsText2191" font-family="微软雅黑" text-anchor="middle" font-size="13px" width="98px" fill="#323232" font-weight="400" align="top" lineHeight="16px" anchor="middle" family="微软雅黑" size="13px" weight="400" font-style="" opacity="1" y="1592.375" transform="rotate(0)"><tspan id="SvgjsTspan2192" dy="16" x="206.9837037535222"><tspan id="SvgjsTspan2193" style="text-decoration:;">invokeJoinpoint()</tspan></tspan></text></g><g id="SvgjsG2194" transform="translate(97,1600)"><path id="SvgjsPath2195" d="M 0 4Q 0 0 4 0L 26 0Q 30 0 30 4L 30 205Q 30 209 26 209L 4 209Q 0 209 0 205L 0 4Z" stroke="rgba(50,50,50,1)" stroke-width="2" fill-opacity="1" fill="#ffffff"></path></g><g id="SvgjsG2196"><path id="SvgjsPath2197" d="M128 1628L157 1628L157 1761L130.6 1761" stroke="#ffb74d" stroke-width="2" fill="none" marker-end="url(#SvgjsMarker2198)"></path><rect id="SvgjsRect2200" width="236" height="16" x="39" y="1685.2" fill="#ffffff"></rect><text id="SvgjsText2201" font-family="微软雅黑" text-anchor="middle" font-size="13px" width="236px" fill="#323232" font-weight="400" align="top" lineHeight="16px" anchor="middle" family="微软雅黑" size="13px" weight="400" font-style="" opacity="1" y="1682.575" transform="rotate(0)"><tspan id="SvgjsTspan2202" dy="16" x="157"><tspan id="SvgjsTspan2203" style="text-decoration:;">System.out.println("hello, i am " + name);</tspan></tspan></text></g><g id="SvgjsG2204" transform="translate(286,940)"><path id="SvgjsPath2205" d="M 0 4Q 0 0 4 0L 26 0Q 30 0 30 4L 30 166Q 30 170 26 170L 4 170Q 0 170 0 166L 0 4Z" stroke="rgba(50,50,50,1)" stroke-width="2" fill-opacity="1" fill="#ffffff"></path></g><g id="SvgjsG2206" transform="translate(286,1122)"><path id="SvgjsPath2207" d="M 0 4Q 0 0 4 0L 26 0Q 30 0 30 4L 30 96Q 30 100 26 100L 4 100Q 0 100 0 96L 0 4Z" stroke="rgba(50,50,50,1)" stroke-width="2" fill-opacity="1" fill="#ffffff"></path></g><g id="SvgjsG2208" transform="translate(286,1234.5)"><path id="SvgjsPath2209" d="M 0 4Q 0 0 4 0L 26 0Q 30 0 30 4L 30 96Q 30 100 26 100L 4 100Q 0 100 0 96L 0 4Z" stroke="rgba(50,50,50,1)" stroke-width="2" fill-opacity="1" fill="#ffffff"></path></g><g id="SvgjsG2210" transform="translate(286,1347)"><path id="SvgjsPath2211" d="M 0 4Q 0 0 4 0L 26 0Q 30 0 30 4L 30 96Q 30 100 26 100L 4 100Q 0 100 0 96L 0 4Z" stroke="rgba(50,50,50,1)" stroke-width="2" fill-opacity="1" fill="#ffffff"></path></g><g id="SvgjsG2212" transform="translate(286,1583)"><path id="SvgjsPath2213" d="M 0 4Q 0 0 4 0L 26 0Q 30 0 30 4L 30 96Q 30 100 26 100L 4 100Q 0 100 0 96L 0 4Z" stroke="rgba(50,50,50,1)" stroke-width="2" fill-opacity="1" fill="#ffffff"></path></g><g id="SvgjsG2214" transform="translate(1523,1774)"><path id="SvgjsPath2215" d="M 0 4Q 0 0 4 0L 26 0Q 30 0 30 4L 30 96Q 30 100 26 100L 4 100Q 0 100 0 96L 0 4Z" stroke="rgba(50,50,50,1)" stroke-width="2" fill-opacity="1" fill="#ffffff"></path></g><g id="SvgjsG2216"><path id="SvgjsPath2217" d="M127 1784L826 1784L826 1786L1522.4 1786" stroke-dasharray="3,3" stroke="#323232" stroke-width="2" fill="none" marker-end="url(#SvgjsMarker2218)"></path><rect id="SvgjsRect2220" width="71" height="16" x="790.2000000000002" y="1776" fill="#ffffff"></rect><text id="SvgjsText2221" font-family="微软雅黑" text-anchor="middle" font-size="13px" width="71px" fill="#323232" font-weight="400" align="top" lineHeight="16px" anchor="middle" family="微软雅黑" size="13px" weight="400" font-style="" opacity="1" y="1773.375" transform="rotate(0)"><tspan id="SvgjsTspan2222" dy="16" x="825.7000000000002"><tspan id="SvgjsTspan2223" style="text-decoration:;">return retVal</tspan></tspan></text></g><g id="SvgjsG2224"><path id="SvgjsPath2225" d="M1319 1872L1444 1872L1444 1939L1321.6 1939" stroke="#ffb74d" stroke-width="2" fill="none" marker-end="url(#SvgjsMarker2226)"></path><rect id="SvgjsRect2228" width="230" height="16" x="1329" y="1896.2000000000003" fill="#ffffff"></rect><text id="SvgjsText2229" font-family="微软雅黑" text-anchor="middle" font-size="13px" width="230px" fill="#323232" font-weight="400" align="top" lineHeight="16px" anchor="middle" family="微软雅黑" size="13px" weight="400" font-style="" opacity="1" y="1893.5750000000003" transform="rotate(0)"><tspan id="SvgjsTspan2230" dy="16" x="1444"><tspan id="SvgjsTspan2231" style="text-decoration:;">System.out.println("@AfterReturning...")</tspan></tspan></text></g><g id="SvgjsG2232" transform="translate(1288,1837)"><path id="SvgjsPath2233" d="M 0 4Q 0 0 4 0L 26 0Q 30 0 30 4L 30 144Q 30 148 26 148L 4 148Q 0 148 0 144L 0 4Z" stroke="rgba(50,50,50,1)" stroke-width="2" fill-opacity="1" fill="#ffffff"></path></g><g id="SvgjsG2234"><path id="SvgjsPath2235" d="M1525 1844L1422 1844L1422 1847L1321.6 1847" stroke-dasharray="3,3" stroke="#323232" stroke-width="2" fill="none" marker-end="url(#SvgjsMarker2236)"></path><rect id="SvgjsRect2238" width="71" height="16" x="1386.5" y="1836.2" fill="#ffffff"></rect><text id="SvgjsText2239" font-family="微软雅黑" text-anchor="middle" font-size="13px" width="71px" fill="#323232" font-weight="400" align="top" lineHeight="16px" anchor="middle" family="微软雅黑" size="13px" weight="400" font-style="" opacity="1" y="1833.575" transform="rotate(0)"><tspan id="SvgjsTspan2240" dy="16" x="1422"><tspan id="SvgjsTspan2241" style="text-decoration:;">return retVal</tspan></tspan></text></g><g id="SvgjsG2242" transform="translate(881.5,1989)"><path id="SvgjsPath2243" d="M 0 4Q 0 0 4 0L 26 0Q 30 0 30 4L 30 96Q 30 100 26 100L 4 100Q 0 100 0 96L 0 4Z" stroke="rgba(50,50,50,1)" stroke-width="2" fill-opacity="1" fill="#ffffff"></path></g><g id="SvgjsG2244"><path id="SvgjsPath2245" d="M1287 1960L1199.5 1960L1199.5 1960L1114.6 1960" stroke-dasharray="3,3" stroke="#323232" stroke-width="2" fill="none" marker-end="url(#SvgjsMarker2246)"></path><rect id="SvgjsRect2248" width="71" height="16" x="1165.3" y="1952" fill="#ffffff"></rect><text id="SvgjsText2249" font-family="微软雅黑" text-anchor="middle" font-size="13px" width="71px" fill="#323232" font-weight="400" align="top" lineHeight="16px" anchor="middle" family="微软雅黑" size="13px" weight="400" font-style="" opacity="1" y="1949.375" transform="rotate(0)"><tspan id="SvgjsTspan2250" dy="16" x="1200.8"><tspan id="SvgjsTspan2251" style="text-decoration:;">return retVal</tspan></tspan></text></g><g id="SvgjsG2252" transform="translate(676,2007)"><path id="SvgjsPath2253" d="M 0 4Q 0 0 4 0L 26 0Q 30 0 30 4L 30 118Q 30 122 26 122L 4 122Q 0 122 0 118L 0 4Z" stroke="rgba(50,50,50,1)" stroke-width="2" fill-opacity="1" fill="#ffffff"></path></g><g id="SvgjsG2254"><path id="SvgjsPath2255" d="M880.5 2024L792.75 2024L792.75 2022L707.6 2022" stroke-dasharray="3,3" stroke="#323232" stroke-width="2" fill="none" marker-end="url(#SvgjsMarker2256)"></path><rect id="SvgjsRect2258" width="71" height="16" x="757.55" y="2016" fill="#ffffff"></rect><text id="SvgjsText2259" font-family="微软雅黑" text-anchor="middle" font-size="13px" width="71px" fill="#323232" font-weight="400" align="top" lineHeight="16px" anchor="middle" family="微软雅黑" size="13px" weight="400" font-style="" opacity="1" y="2013.375" transform="rotate(0)"><tspan id="SvgjsTspan2260" dy="16" x="793.05"><tspan id="SvgjsTspan2261" style="text-decoration:;">return retVal</tspan></tspan></text></g><g id="SvgjsG2262"><path id="SvgjsPath2263" d="M675 2032.62L563 2032.62L563 2093L672.4 2093" stroke="#ffb74d" stroke-width="2" fill="none" marker-end="url(#SvgjsMarker2264)"></path><rect id="SvgjsRect2266" width="199" height="16" x="463.5" y="2053.51" fill="#ffffff"></rect><text id="SvgjsText2267" font-family="微软雅黑" text-anchor="middle" font-size="13px" width="199px" fill="#323232" font-weight="400" align="top" lineHeight="16px" anchor="middle" family="微软雅黑" size="13px" weight="400" font-style="" opacity="1" y="2050.885" transform="rotate(0)"><tspan id="SvgjsTspan2268" dy="16" x="563"><tspan id="SvgjsTspan2269" style="text-decoration:;">System.out.println("@Around... 2")</tspan></tspan></text></g><g id="SvgjsG2270" transform="translate(481,2094)"><path id="SvgjsPath2271" d="M 0 4Q 0 0 4 0L 26 0Q 30 0 30 4L 30 96Q 30 100 26 100L 4 100Q 0 100 0 96L 0 4Z" stroke="rgba(50,50,50,1)" stroke-width="2" fill-opacity="1" fill="#ffffff"></path></g><g id="SvgjsG2272"><path id="SvgjsPath2273" d="M675 2108L593.5 2108L593.5 2106L514.6 2106" stroke-dasharray="3,3" stroke="#323232" stroke-width="2" fill="none" marker-end="url(#SvgjsMarker2274)"></path><rect id="SvgjsRect2276" width="71" height="16" x="558.3" y="2100" fill="#ffffff"></rect><text id="SvgjsText2277" font-family="微软雅黑" text-anchor="middle" font-size="13px" width="71px" fill="#323232" font-weight="400" align="top" lineHeight="16px" anchor="middle" family="微软雅黑" size="13px" weight="400" font-style="" opacity="1" y="2097.375" transform="rotate(0)"><tspan id="SvgjsTspan2278" dy="16" x="593.8"><tspan id="SvgjsTspan2279" style="text-decoration:;">return retVal</tspan></tspan></text></g><g id="SvgjsG2280" transform="translate(286,2129)"><path id="SvgjsPath2281" d="M 0 4Q 0 0 4 0L 26 0Q 30 0 30 4L 30 96Q 30 100 26 100L 4 100Q 0 100 0 96L 0 4Z" stroke="rgba(50,50,50,1)" stroke-width="2" fill-opacity="1" fill="#ffffff"></path></g><g id="SvgjsG2282"><path id="SvgjsPath2283" d="M480 2172L397.25 2172L397.25 2170L317.1 2170" stroke-dasharray="3,3" stroke="#323232" stroke-width="2" fill="none" marker-end="url(#SvgjsMarker2284)"></path><rect id="SvgjsRect2286" width="71" height="16" x="362.05" y="2164" fill="#ffffff"></rect><text id="SvgjsText2287" font-family="微软雅黑" text-anchor="middle" font-size="13px" width="71px" fill="#323232" font-weight="400" align="top" lineHeight="16px" anchor="middle" family="微软雅黑" size="13px" weight="400" font-style="" opacity="1" y="2161.375" transform="rotate(0)"><tspan id="SvgjsTspan2288" dy="16" x="397.55"><tspan id="SvgjsTspan2289" style="text-decoration:;">return retVal</tspan></tspan></text></g><g id="SvgjsG2290" transform="translate(1081,1941)"><path id="SvgjsPath2291" d="M 0 4Q 0 0 4 0L 26 0Q 30 0 30 4L 30 96Q 30 100 26 100L 4 100Q 0 100 0 96L 0 4Z" stroke="rgba(50,50,50,1)" stroke-width="2" fill-opacity="1" fill="#ffffff"></path></g><g id="SvgjsG2292"><path id="SvgjsPath2293" d="M1111 1975L1204 1975L1204 2017L1113.6 2017" stroke="#ffb74d" stroke-width="2" fill="none" marker-end="url(#SvgjsMarker2294)"></path><rect id="SvgjsRect2296" width="173" height="16" x="1117.5" y="1986.7000000000003" fill="#ffffff"></rect><text id="SvgjsText2297" font-family="微软雅黑" text-anchor="middle" font-size="13px" width="173px" fill="#323232" font-weight="400" align="top" lineHeight="16px" anchor="middle" family="微软雅黑" size="13px" weight="400" font-style="" opacity="1" y="1984.0750000000003" transform="rotate(0)"><tspan id="SvgjsTspan2298" dy="16" x="1204"><tspan id="SvgjsTspan2299" style="text-decoration:;">System.out.println("@After...")</tspan></tspan></text></g><g id="SvgjsG2300"><path id="SvgjsPath2301" d="M1080 2026L996.25 2026L996.25 2024L915.0999999999999 2024" stroke-dasharray="3,3" stroke="#323232" stroke-width="2" fill="none" marker-end="url(#SvgjsMarker2302)"></path><rect id="SvgjsRect2304" width="71" height="16" x="961.05" y="2018" fill="#ffffff"></rect><text id="SvgjsText2305" font-family="微软雅黑" text-anchor="middle" font-size="13px" width="71px" fill="#323232" font-weight="400" align="top" lineHeight="16px" anchor="middle" family="微软雅黑" size="13px" weight="400" font-style="" opacity="1" y="2015.375" transform="rotate(0)"><tspan id="SvgjsTspan2306" dy="16" x="996.55"><tspan id="SvgjsTspan2307" style="text-decoration:;">return retVal</tspan></tspan></text></g><g id="SvgjsG2308"><path id="SvgjsPath2309" d="M480 1096.1006289308175L398.25 1096.1006289308175L398.25 1096.1006289308175L319.1 1096.1006289308175" stroke-dasharray="3,3" stroke="#323232" stroke-width="2" fill="none" marker-end="url(#SvgjsMarker2310)"></path><rect id="SvgjsRect2312" width="73" height="16" x="363.05" y="1088.1006289308175" fill="#ffffff"></rect><text id="SvgjsText2313" font-family="微软雅黑" text-anchor="middle" font-size="13px" width="73px" fill="#323232" font-weight="400" align="top" lineHeight="16px" anchor="middle" family="微软雅黑" size="13px" weight="400" font-style="" opacity="1" y="1085.4756289308175" transform="rotate(0)"><tspan id="SvgjsTspan2314" dy="16" x="399.55"><tspan id="SvgjsTspan2315" style="text-decoration:;">mi.proceed()</tspan></tspan></text></g><g id="SvgjsG2316" transform="translate(90,1975)"><path id="SvgjsPath2317" d="M 0 0L 113 0L 113 29L 0 29Z" stroke="rgba(50,50,50,1)" stroke-width="2" fill-opacity="1" fill="#ffb74d"></path><g id="SvgjsG2318"><text id="SvgjsText2319" font-family="微软雅黑" text-anchor="middle" font-size="13px" width="93px" fill="#323232" font-weight="400" align="middle" lineHeight="125%" anchor="middle" family="微软雅黑" size="13px" weight="400" font-style="" opacity="1" y="3.875" transform="rotate(0)"><tspan id="SvgjsTspan2320" dy="16" x="56.5"><tspan id="SvgjsTspan2321" style="text-decoration:;">业务类</tspan></tspan></text></g></g><g id="SvgjsG2322" transform="translate(90,2012)"><path id="SvgjsPath2323" d="M 0 0L 113 0L 113 29L 0 29Z" stroke="rgba(50,50,50,1)" stroke-width="2" fill-opacity="1" fill="#2196f3"></path><g id="SvgjsG2324"><text id="SvgjsText2325" font-family="微软雅黑" text-anchor="middle" font-size="13px" width="93px" fill="#323232" font-weight="400" align="middle" lineHeight="125%" anchor="middle" family="微软雅黑" size="13px" weight="400" font-style="" opacity="1" y="3.875" transform="rotate(0)"><tspan id="SvgjsTspan2326" dy="16" x="56.5"><tspan id="SvgjsTspan2327" style="text-decoration:;">Spring组件类</tspan></tspan></text></g></g></svg>